<mxfile host="app.diagrams.net" modified="2022-06-20T17:43:41.368Z" agent="5.0 (Windows NT 10.0; Win64; x64) AppleWebKit/537.36 (KHTML, like Gecko) Chrome/102.0.0.0 Safari/537.36" etag="0olXdq0TAeI5nXR8SBMz" version="20.0.1" type="github">
  <diagram id="PoOrTrE3YrLX0H8c-MdR" name="Page-1">
    <mxGraphModel dx="1278" dy="581" grid="1" gridSize="10" guides="1" tooltips="1" connect="1" arrows="1" fold="1" page="1" pageScale="1" pageWidth="827" pageHeight="1169" math="0" shadow="0">
      <root>
        <mxCell id="0" />
        <mxCell id="1" parent="0" />
        <mxCell id="dp3pnlKfoVognZMPQzpX-1" value="presentation" style="shape=module;align=left;spacingLeft=20;align=center;verticalAlign=top;" vertex="1" parent="1">
          <mxGeometry x="349" y="70" width="130" height="50" as="geometry" />
        </mxCell>
        <mxCell id="dp3pnlKfoVognZMPQzpX-2" value="accesPersistence" style="shape=module;align=left;spacingLeft=20;align=center;verticalAlign=top;" vertex="1" parent="1">
          <mxGeometry x="349" y="510" width="130" height="50" as="geometry" />
        </mxCell>
        <mxCell id="dp3pnlKfoVognZMPQzpX-6" value="application" style="shape=module;align=left;spacingLeft=20;align=center;verticalAlign=top;" vertex="1" parent="1">
          <mxGeometry x="349" y="360" width="130" height="50" as="geometry" />
        </mxCell>
        <mxCell id="dp3pnlKfoVognZMPQzpX-7" value="persistence" style="shape=module;align=left;spacingLeft=20;align=center;verticalAlign=top;" vertex="1" parent="1">
          <mxGeometry x="349" y="640" width="130" height="50" as="geometry" />
        </mxCell>
        <mxCell id="dp3pnlKfoVognZMPQzpX-50" value="" style="rounded=0;orthogonalLoop=1;jettySize=auto;html=1;endArrow=none;endFill=0;sketch=0;targetPerimeterSpacing=0;fontSize=10;startArrow=none;" edge="1" target="dp3pnlKfoVognZMPQzpX-52" parent="1" source="dp3pnlKfoVognZMPQzpX-5">
          <mxGeometry relative="1" as="geometry">
            <mxPoint x="414" y="230" as="sourcePoint" />
          </mxGeometry>
        </mxCell>
        <mxCell id="dp3pnlKfoVognZMPQzpX-51" value="" style="rounded=0;orthogonalLoop=1;jettySize=auto;html=1;endArrow=halfCircle;endFill=0;endSize=6;strokeWidth=1;sketch=0;fontSize=10;exitX=0.5;exitY=1;exitDx=0;exitDy=0;" edge="1" parent="1" source="dp3pnlKfoVognZMPQzpX-1">
          <mxGeometry relative="1" as="geometry">
            <mxPoint x="799" y="205" as="sourcePoint" />
            <mxPoint x="414" y="170" as="targetPoint" />
          </mxGeometry>
        </mxCell>
        <mxCell id="dp3pnlKfoVognZMPQzpX-66" value="" style="edgeStyle=orthogonalEdgeStyle;rounded=0;orthogonalLoop=1;jettySize=auto;html=1;fontSize=10;" edge="1" parent="1" source="dp3pnlKfoVognZMPQzpX-52">
          <mxGeometry relative="1" as="geometry">
            <mxPoint x="414" y="260" as="targetPoint" />
          </mxGeometry>
        </mxCell>
        <mxCell id="dp3pnlKfoVognZMPQzpX-52" value="" style="ellipse;whiteSpace=wrap;html=1;align=center;aspect=fixed;resizable=0;points=[];outlineConnect=0;sketch=0;fontSize=10;" vertex="1" parent="1">
          <mxGeometry x="409" y="170" width="10" height="10" as="geometry" />
        </mxCell>
        <mxCell id="dp3pnlKfoVognZMPQzpX-5" value="coordonnateur" style="shape=module;align=left;spacingLeft=20;align=center;verticalAlign=top;" vertex="1" parent="1">
          <mxGeometry x="349" y="230" width="130" height="50" as="geometry" />
        </mxCell>
        <mxCell id="dp3pnlKfoVognZMPQzpX-59" value="" style="rounded=0;orthogonalLoop=1;jettySize=auto;html=1;endArrow=none;endFill=0;sketch=0;sourcePerimeterSpacing=0;fontSize=10;" edge="1" parent="1" target="dp3pnlKfoVognZMPQzpX-5">
          <mxGeometry relative="1" as="geometry">
            <mxPoint x="414" y="230" as="sourcePoint" />
            <mxPoint x="414" y="180" as="targetPoint" />
          </mxGeometry>
        </mxCell>
      </root>
    </mxGraphModel>
  </diagram>
</mxfile>
